<svg width="14" height="14" viewBox="0 0 14 14" fill="none" xmlns="http://www.w3.org/2000/svg">
<path d="M3.06258 6.41671C2.82096 6.41671 2.62508 6.61258 2.62508 6.85421C2.62508 7.0757 2.78967 7.25874 3.00322 7.28771L3.06258 7.29171H11.2292C11.4709 7.29171 11.6667 7.09583 11.6667 6.85421C11.6667 6.63272 11.5022 6.44967 11.2886 6.4207L11.2292 6.41671H3.06258Z" fill="#212121"/>
<path d="M11.5386 6.54485C11.3833 6.38953 11.1402 6.37541 10.969 6.50249L10.9199 6.54485L8.58656 8.87818C8.4157 9.04904 8.4157 9.32605 8.58656 9.4969C8.74188 9.65222 8.98493 9.66634 9.1562 9.53926L9.20527 9.4969L11.5386 7.16357C11.7095 6.99271 11.7095 6.7157 11.5386 6.54485Z" fill="#212121"/>
<path d="M9.20527 4.21151C9.03442 4.04066 8.75741 4.04066 8.58656 4.21151C8.43123 4.36684 8.41711 4.60989 8.54419 4.78116L8.58656 4.83023L10.9199 7.16357C11.0907 7.33442 11.3678 7.33442 11.5386 7.16357C11.6939 7.00824 11.708 6.76519 11.581 6.59392L11.5386 6.54485L9.20527 4.21151Z" fill="#212121"/>
</svg>
