<svg width="26" height="28" viewBox="0 0 26 28" fill="none" xmlns="http://www.w3.org/2000/svg">
<path id="Icon Color" fill-rule="evenodd" clip-rule="evenodd" d="M3.54131 0C3.96622 0 4.33508 0.267507 4.46119 0.649489L4.49398 0.780847L5.43172 6.22982H24.1453C24.6878 6.22982 25.1142 6.65898 25.1113 7.16779L25.1014 7.29645L23.8136 16.0182L23.7687 16.196C23.0838 18.0803 21.242 19.3261 19.2447 19.3198L18.9943 19.3124L10.0347 19.3109C7.97368 19.424 6.07682 18.2582 5.29724 16.4282L5.20568 16.196L5.16413 16.0397L3.70614 7.57546L3.68159 7.52803C3.64901 7.4535 3.62614 7.37403 3.61451 7.2911L3.6057 7.16429C3.6057 7.12128 3.6087 7.07896 3.61451 7.03749L2.7223 1.86895H0.965811C0.476859 1.86895 0.0727694 1.51739 0.00881672 1.06128L0 0.934473C0 0.461386 0.363343 0.0704082 0.834756 0.00853064L0.965811 0H3.54131ZM23.0314 8.09884H5.75366L7.05171 15.6357L7.11116 15.7795C7.5652 16.7742 8.57859 17.4261 9.74488 17.4477L9.98005 17.4436L19.049 17.4451C20.2614 17.5116 21.3791 16.8406 21.8632 15.7795L21.9162 15.6469L23.0314 8.09884ZM5.15097 23.9069C5.15097 22.0145 6.73647 20.4805 8.69228 20.4805C10.6481 20.4805 12.2336 22.0145 12.2336 23.9069C12.2336 25.7992 10.6481 27.3333 8.69228 27.3333C6.73647 27.3333 5.15097 25.7992 5.15097 23.9069ZM10.3019 23.9068C10.3019 23.0466 9.58123 22.3493 8.69223 22.3493C7.80322 22.3493 7.08254 23.0466 7.08254 23.9068C7.08254 24.767 7.80322 25.4643 8.69223 25.4643C9.58123 25.4643 10.3019 24.767 10.3019 23.9068ZM15.453 23.9069C15.453 22.0145 17.0385 20.4805 18.9943 20.4805C20.9501 20.4805 22.5356 22.0145 22.5356 23.9069C22.5356 25.7992 20.9501 27.3333 18.9943 27.3333C17.0385 27.3333 15.453 25.7992 15.453 23.9069ZM20.604 23.9068C20.604 23.0466 19.8833 22.3493 18.9943 22.3493C18.1053 22.3493 17.3846 23.0466 17.3846 23.9068C17.3846 24.767 18.1053 25.4643 18.9943 25.4643C19.8833 25.4643 20.604 24.767 20.604 23.9068Z" fill="#212121"/>
</svg>
