<svg width="77" height="24" viewBox="0 0 77 24" fill="none" xmlns="http://www.w3.org/2000/svg">
<g id="Logo">
<path id="Logo Color" fill-rule="evenodd" clip-rule="evenodd" d="M22.9036 7.2C24.8871 7.2 26.3502 7.56444 27.2929 8.29333C28.1801 8.97935 28.6498 10.1457 28.702 11.7923L28.7069 12.1067V20.9333H25.2014L24.7595 18.9067L24.5304 19.1355C23.0649 20.5474 21.3247 21.2533 19.3098 21.2533C17.8958 21.2533 16.742 20.9156 15.8484 20.24C15.0144 19.6095 14.5696 18.7467 14.514 17.6516L14.5081 17.4133V16.0533L14.5142 15.8284C14.5669 14.8691 14.9626 14.113 15.7011 13.56C16.4353 13.0103 17.4331 12.7142 18.6944 12.672L19.0152 12.6667H24.2587V12.08L24.2537 11.8839C24.2237 11.3151 24.0584 10.9227 23.7579 10.7067C23.4241 10.4667 22.7858 10.3467 21.8431 10.3467C20.3385 10.3467 18.4574 10.4073 16.1998 10.5284L15.6275 10.56L15.2151 7.86667L16.0343 7.74C18.4752 7.38 20.765 7.2 22.9036 7.2ZM36.6016 2V6.24L36.5969 6.64757C36.5717 7.71512 36.4456 8.62815 36.2187 9.38667C37.7898 7.92889 39.5376 7.2 41.4622 7.2C43.3672 7.2 44.7419 7.73778 45.5863 8.81333C46.4308 9.88889 46.853 11.6622 46.853 14.1333C46.853 15.2356 46.7499 16.1911 46.5437 17C46.3375 17.8089 45.984 18.5467 45.4832 19.2133C44.9824 19.88 44.246 20.3867 43.2739 20.7333C42.3018 21.08 41.0989 21.2533 39.6653 21.2533C38.4673 21.2533 37.127 21.1644 35.6442 20.9867C34.2963 20.8251 33.2121 20.6047 32.3917 20.3255L32.1535 20.24V2H36.6016ZM64.9126 7.4L68.1108 12.6224H68.4125L71.641 7.4H76.2573L71.9427 14.0096L76.5892 21H71.9427L68.3522 15.288H68.1712L64.5807 21H59.9341L64.5807 14.0096L60.266 7.4H64.9126ZM4.53654 2.18667C8.93561 2.18667 12.0287 2.28444 13.8158 2.48L13.5802 5.49333H6.18619L5.97999 5.49854C5.51602 5.52285 5.17234 5.63222 4.94895 5.82667C4.69365 6.04889 4.566 6.4 4.566 6.88V10.08H12.4608V13.0933H4.566V20.9333H0V6.05333L0.00631244 5.7983C0.0610203 4.71054 0.471329 3.84889 1.23724 3.21333C2.06206 2.52889 3.16183 2.18667 4.53654 2.18667ZM59.3874 7.2L58.9456 10.9067H57.7378L57.5614 10.9103C56.6443 10.9468 55.2007 11.2567 53.2307 11.84V20.9333H48.812V7.6H52.2586L52.6415 9.54667L52.9607 9.30615C54.8741 7.90205 56.761 7.2 58.6215 7.2H59.3874ZM39.6947 10.4C38.9288 10.4 37.9766 10.7296 36.8382 11.3887L36.5722 11.5467V18.0267L36.9942 18.1105C37.8407 18.2629 38.7016 18.3238 39.5769 18.2933C40.5981 18.2578 41.31 17.9511 41.7126 17.3733C42.1152 16.7956 42.3165 15.7244 42.3165 14.16C42.3165 12.6844 42.1447 11.6889 41.801 11.1733C41.4573 10.6578 40.7552 10.4 39.6947 10.4ZM24.2587 15.0933H20.2819L20.1106 15.0982C19.3374 15.1439 18.925 15.5095 18.8734 16.1949L18.8679 16.3467V16.88L18.8739 17.0383C18.938 17.8572 19.5154 18.2667 20.6059 18.2667C21.7001 18.2667 22.8281 17.8911 23.99 17.14L24.2587 16.96V15.0933Z" fill="#212121"/>
</g>
</svg>
