<svg width="20" height="20" viewBox="0 0 20 20" fill="none" xmlns="http://www.w3.org/2000/svg">
<g id="Icon">
<g id="Icon Color">
<path d="M4.37496 9.16668C4.02978 9.16668 3.74996 9.4465 3.74996 9.79168C3.74996 10.1081 3.98509 10.3696 4.29015 10.411L4.37496 10.4167H16.0416C16.3868 10.4167 16.6666 10.1369 16.6666 9.79168C16.6666 9.47526 16.4315 9.21377 16.1264 9.17238L16.0416 9.16668H4.37496Z" fill="#212121"/>
<path d="M16.4836 9.34974C16.2617 9.12785 15.9145 9.10767 15.6698 9.28922L15.5997 9.34974L12.2664 12.6831C12.0223 12.9271 12.0223 13.3229 12.2664 13.567C12.4882 13.7888 12.8355 13.809 13.0801 13.6275L13.1502 13.567L16.4836 10.2336C16.7276 9.98954 16.7276 9.59381 16.4836 9.34974Z" fill="#212121"/>
<path d="M13.1502 6.0164C12.9062 5.77232 12.5104 5.77232 12.2664 6.0164C12.0445 6.23829 12.0243 6.58551 12.2058 6.83019L12.2664 6.90029L15.5997 10.2336C15.8438 10.4777 16.2395 10.4777 16.4836 10.2336C16.7055 10.0117 16.7256 9.66451 16.5441 9.41983L16.4836 9.34974L13.1502 6.0164Z" fill="#212121"/>
</g>
</g>
</svg>
